<?xml version="1.0" encoding="UTF-8"?>
<svg width="20px" height="20px" viewBox="0 0 20 20" version="1.1" xmlns="http://www.w3.org/2000/svg" xmlns:xlink="http://www.w3.org/1999/xlink">
    <!-- Generator: Sketch 49 (51002) - http://www.bohemiancoding.com/sketch -->
    <title>Instagram</title>
    <desc>Created with Sketch.</desc>
    <defs></defs>
    <g id="Restaurant-Redesign" stroke="none" stroke-width="1" fill="none" fill-rule="evenodd">
        <g id="Desktop-HD" transform="translate(-217.000000, -4349.000000)" fill="#FFFFFF" fill-rule="nonzero">
            <g id="Instagram" transform="translate(217.000000, 4349.000000)">
                <path d="M16.5217391,4.34786957 C16.5217391,3.86743478 16.1326087,3.47830435 15.6521739,3.47830435 C15.1717391,3.47830435 14.7826087,3.86743478 14.7826087,4.34786957 C14.7826087,4.82830435 15.1717391,5.21743478 15.6521739,5.21743478 C16.1326087,5.21743478 16.5217391,4.82830435 16.5217391,4.34786957" id="Fill-148"></path>
                <path d="M10,13.913087 C7.89608696,13.913087 6.08695652,12.1039565 6.08695652,10.0000435 C6.08695652,7.89613043 7.89608696,6.087 10,6.087 C12.103913,6.087 13.9130435,7.89613043 13.9130435,10.0000435 C13.9130435,12.1039565 12.103913,13.913087 10,13.913087 M10,4.34786957 C6.87826087,4.34786957 4.34782609,6.87830435 4.34782609,10.0000435 C4.34782609,13.1217826 6.87826087,15.6522174 10,15.6522174 C13.1217391,15.6522174 15.6521739,13.1217826 15.6521739,10.0000435 C15.6521739,6.87830435 13.1217391,4.34786957 10,4.34786957" id="Fill-149"></path>
                <path d="M18.2608696,15.8312609 C18.2608696,17.173 17.1730435,18.2608261 15.8313043,18.2608261 L4.16869565,18.2608261 C2.82695652,18.2608261 1.73913043,17.173 1.73913043,15.8312609 L1.73913043,4.16865217 C1.73913043,2.82691304 2.82695652,1.73908696 4.16869565,1.73908696 L15.8313043,1.73908696 C17.1730435,1.73908696 18.2608696,2.82691304 18.2608696,4.16865217 L18.2608696,15.8312609 Z M15.6521739,-4.3478261e-05 L4.34782609,-4.3478261e-05 C1.94652174,-4.3478261e-05 0,1.94647826 0,4.34778261 L0,15.6521304 C0,18.0534348 1.94652174,19.9999565 4.34782609,19.9999565 L15.6521739,19.9999565 C18.0534783,19.9999565 20,18.0534348 20,15.6521304 L20,4.34778261 C20,1.94647826 18.0534783,-4.3478261e-05 15.6521739,-4.3478261e-05 Z" id="Fill-150"></path>
            </g>
        </g>
    </g>
</svg>