<?xml version="1.0" encoding="UTF-8"?>
<svg width="20px" height="16px" viewBox="0 0 20 16" version="1.1" xmlns="http://www.w3.org/2000/svg" xmlns:xlink="http://www.w3.org/1999/xlink">
    <!-- Generator: Sketch 49 (51002) - http://www.bohemiancoding.com/sketch -->
    <title>TwitterVector</title>
    <desc>Created with Sketch.</desc>
    <defs></defs>
    <g id="Restaurant-Redesign" stroke="none" stroke-width="1" fill="none" fill-rule="evenodd">
        <g id="Desktop-HD" transform="translate(-133.000000, -4351.000000)" fill="#FFFFFF" fill-rule="nonzero">
            <g id="TwitterVector" transform="translate(133.000000, 4351.000000)">
                <path d="M13.9508781,0.000279430571 C11.6309969,0.0423656521 9.81575844,2.01450512 9.81575844,4.31255194 L9.81575844,4.8697596 C5.68941828,4.13064208 3.6262482,3.0221397 1.38748917,0.695919455 C0.0484478912,3.26109205 1.51180614,5.43496712 3.1433786,6.60885967 C2.05156655,6.60885967 1.15571177,6.45373194 0.451600105,5.84574256 C0.398572244,5.79983032 0.314991907,5.84713384 0.333955513,5.9142631 C0.946409747,8.05926912 2.9639267,9.61993751 4.54809015,10.0870598 C3.1180938,10.0870598 2.14849165,10.2981865 1.14693232,9.66028463 C1.08898797,9.62341571 1.01453826,9.67906692 1.037716,9.74341362 C1.79590905,11.852942 3.34355,12.5217999 5.60162381,12.5217999 C4.4789081,13.3398725 2.98499738,14.1993358 0.126409382,14.2584652 C0.0105206795,14.2608999 -0.0456677823,14.4042018 0.0449361124,14.4762005 C1.12410576,15.3380985 3.71123325,16 7.35751324,16 C13.3749463,16 18.2440277,10.7107011 18.2440277,4.17411958 L18.2440277,3.82629957 C19.180268,3.47952301 19.7295102,2.64962446 19.9971077,1.81624772 C20.0122084,1.76998765 19.9655017,1.72685797 19.9191462,1.74250987 L17.9427171,2.41797634 C17.8977663,2.43328042 17.8668627,2.37658576 17.9033852,2.34702105 C18.7307603,1.67225023 19.3871117,0.842003861 19.646281,0.0500176923 C19.6564652,0.0194095313 19.6231033,-0.00841606974 19.5932532,0.00410545071 C18.6447217,0.398185525 17.741141,0.768613838 17.0271963,0.988088266 C16.908147,1.02495719 16.7820742,1.00965311 16.673209,0.949132424 C16.2047377,0.689310875 14.8481376,-0.01606811 13.9508781,0.000279430571" id="Fill-61"></path>
            </g>
        </g>
    </g>
</svg>